<?xml version="1.0" standalone="no"?>
<!DOCTYPE svg PUBLIC "-//W3C//DTD SVG 20010904//EN"
 "http://www.w3.org/TR/2001/REC-SVG-20010904/DTD/svg10.dtd">
<svg version="1.0" xmlns="http://www.w3.org/2000/svg"
 width="225.000000pt" height="225.000000pt" viewBox="0 0 225.000000 225.000000"
 preserveAspectRatio="xMidYMid meet">

<g transform="translate(0.000000,225.000000) scale(0.100000,-0.100000)"
fill="#000000" stroke="none">
<path d="M242 1823 c-34 -7 -90 -68 -98 -107 -8 -46 10 -96 47 -132 l30 -29
904 0 904 0 30 29 c37 36 55 86 47 132 -9 43 -63 99 -106 108 -36 7 -1721 6
-1758 -1z"/>
<path d="M203 1239 c-29 -18 -63 -80 -63 -114 0 -35 34 -96 65 -115 32 -20 47
-20 920 -20 873 0 888 0 920 20 31 19 65 80 65 115 0 35 -34 96 -65 115 -32
20 -47 20 -921 20 -875 0 -889 -1 -921 -21z"/>
<path d="M230 693 c-54 -20 -97 -99 -86 -159 9 -43 63 -99 106 -108 42 -8
1708 -8 1750 0 43 9 97 65 106 108 8 46 -10 96 -47 132 l-30 29 -892 2 c-491
1 -899 -1 -907 -4z"/>
</g>
</svg>
